<svg width="90" height="10" viewBox="0 0 90 10" fill="none" xmlns="http://www.w3.org/2000/svg">
<path d="M4.12475 0.583827C4.50519 -0.104606 5.49481 -0.104606 5.87525 0.583827L6.65696 1.99839C6.80037 2.2579 7.05154 2.44039 7.34267 2.49659L8.92956 2.80292C9.70186 2.952 10.0077 3.89318 9.4705 4.46774L8.36673 5.64831C8.16423 5.8649 8.06829 6.16017 8.10481 6.45442L8.30385 8.0583C8.40072 8.83887 7.6001 9.42055 6.88767 9.08722L5.42379 8.40229C5.15524 8.27663 4.84476 8.27663 4.57621 8.40229L3.11233 9.08722C2.3999 9.42056 1.59928 8.83887 1.69615 8.0583L1.89519 6.45442C1.93171 6.16017 1.83577 5.8649 1.63327 5.64831L0.529503 4.46774C-0.00767314 3.89318 0.298136 2.952 1.07044 2.80292L2.65733 2.49659C2.94846 2.44039 3.19963 2.2579 3.34304 1.99839L4.12475 0.583827Z" fill="url(#paint0_linear_0_1)"/>
<path d="M24.1248 0.583827C24.5052 -0.104606 25.4948 -0.104606 25.8752 0.583827L26.657 1.99839C26.8004 2.2579 27.0515 2.44039 27.3427 2.49659L28.9296 2.80292C29.7019 2.952 30.0077 3.89318 29.4705 4.46774L28.3667 5.64831C28.1642 5.8649 28.0683 6.16017 28.1048 6.45442L28.3039 8.0583C28.4007 8.83887 27.6001 9.42055 26.8877 9.08722L25.4238 8.40229C25.1552 8.27663 24.8448 8.27663 24.5762 8.40229L23.1123 9.08722C22.3999 9.42056 21.5993 8.83887 21.6961 8.0583L21.8952 6.45442C21.9317 6.16017 21.8358 5.8649 21.6333 5.64831L20.5295 4.46774C19.9923 3.89318 20.2981 2.952 21.0704 2.80292L22.6573 2.49659C22.9485 2.44039 23.1996 2.2579 23.343 1.99839L24.1248 0.583827Z" fill="url(#paint1_linear_0_1)"/>
<path d="M44.1248 0.583827C44.5052 -0.104606 45.4948 -0.104606 45.8752 0.583827L46.657 1.99839C46.8004 2.2579 47.0515 2.44039 47.3427 2.49659L48.9296 2.80292C49.7019 2.952 50.0077 3.89318 49.4705 4.46774L48.3667 5.64831C48.1642 5.8649 48.0683 6.16017 48.1048 6.45442L48.3039 8.0583C48.4007 8.83887 47.6001 9.42055 46.8877 9.08722L45.4238 8.40229C45.1552 8.27663 44.8448 8.27663 44.5762 8.40229L43.1123 9.08722C42.3999 9.42056 41.5993 8.83887 41.6961 8.0583L41.8952 6.45442C41.9317 6.16017 41.8358 5.8649 41.6333 5.64831L40.5295 4.46774C39.9923 3.89318 40.2981 2.952 41.0704 2.80292L42.6573 2.49659C42.9485 2.44039 43.1996 2.2579 43.343 1.99839L44.1248 0.583827Z" fill="url(#paint2_linear_0_1)"/>
<path d="M64.1248 0.583827C64.5052 -0.104606 65.4948 -0.104606 65.8752 0.583827L66.657 1.99839C66.8004 2.2579 67.0515 2.44039 67.3427 2.49659L68.9296 2.80292C69.7019 2.952 70.0077 3.89318 69.4705 4.46774L68.3667 5.64831C68.1642 5.8649 68.0683 6.16017 68.1048 6.45442L68.3039 8.0583C68.4007 8.83887 67.6001 9.42055 66.8877 9.08722L65.4238 8.40229C65.1552 8.27663 64.8448 8.27663 64.5762 8.40229L63.1123 9.08722C62.3999 9.42056 61.5993 8.83887 61.6961 8.0583L61.8952 6.45442C61.9317 6.16017 61.8358 5.8649 61.6333 5.64831L60.5295 4.46774C59.9923 3.89318 60.2981 2.952 61.0704 2.80292L62.6573 2.49659C62.9485 2.44039 63.1996 2.2579 63.343 1.99839L64.1248 0.583827Z" fill="url(#paint3_linear_0_1)"/>
<path d="M84.1248 0.583827C84.5052 -0.104606 85.4948 -0.104606 85.8752 0.583827L86.657 1.99839C86.8004 2.2579 87.0515 2.44039 87.3427 2.49659L88.9296 2.80292C89.7019 2.952 90.0077 3.89318 89.4705 4.46774L88.3667 5.64831C88.1642 5.8649 88.0683 6.16017 88.1048 6.45442L88.3039 8.0583C88.4007 8.83887 87.6001 9.42055 86.8877 9.08722L85.4238 8.40229C85.1552 8.27663 84.8448 8.27663 84.5762 8.40229L83.1123 9.08722C82.3999 9.42056 81.5993 8.83887 81.6961 8.0583L81.8952 6.45442C81.9317 6.16017 81.8358 5.8649 81.6333 5.64831L80.5295 4.46774C79.9923 3.89318 80.2981 2.952 81.0704 2.80292L82.6573 2.49659C82.9485 2.44039 83.1996 2.2579 83.343 1.99839L84.1248 0.583827Z" fill="url(#paint4_linear_0_1)"/>
<defs>
<linearGradient id="paint0_linear_0_1" x1="0.374194" y1="-1" x2="10.5161" y2="-1" gradientUnits="userSpaceOnUse">
<stop stop-color="#A02279"/>
<stop stop-color="#A02279"/>
</linearGradient>
<linearGradient id="paint1_linear_0_1" x1="20.3742" y1="-1" x2="30.5161" y2="-1" gradientUnits="userSpaceOnUse">
<stop stop-color="#A02279"/>
<stop stop-color="#A02279"/>
</linearGradient>
<linearGradient id="paint2_linear_0_1" x1="40.3742" y1="-1" x2="50.5161" y2="-1" gradientUnits="userSpaceOnUse">
<stop stop-color="#A02279"/>
<stop stop-color="#A02279"/>
</linearGradient>
<linearGradient id="paint3_linear_0_1" x1="60.3742" y1="-1" x2="70.5161" y2="-1" gradientUnits="userSpaceOnUse">
<stop stop-color="#A02279"/>
<stop stop-color="#A02279"/>
</linearGradient>
<linearGradient id="paint4_linear_0_1" x1="80.3742" y1="-1" x2="90.5161" y2="-1" gradientUnits="userSpaceOnUse">
<stop stop-color="#A02279"/>
<stop stop-color="#A02279"/>
</linearGradient>
</defs>
</svg>
